<?xml version="1.0" encoding="UTF-8" standalone="no"?>
<!DOCTYPE svg PUBLIC "-//W3C//DTD SVG 1.1//EN"
 "http://www.w3.org/Graphics/SVG/1.1/DTD/svg11.dtd">
<!-- Generated by graphviz version 2.38.0 (20140413.2041)
 -->
<!-- Title: spacetime Pages: 1 -->
<svg width="338pt" height="341pt"
 viewBox="0.00 0.00 338.00 340.80" xmlns="http://www.w3.org/2000/svg" xmlns:xlink="http://www.w3.org/1999/xlink">
<g id="graph0" class="graph" transform="scale(1 1) rotate(0) translate(4 336.8)">
<title>spacetime</title>
<polygon fill="white" stroke="none" points="-4,4 -4,-336.8 334,-336.8 334,4 -4,4"/>
<g id="clust1" class="cluster"><title>cluster_proc_nodes</title>
<polygon fill="none" stroke="black" points="8,-272.8 8,-324.8 322,-324.8 322,-272.8 8,-272.8"/>
</g>
<!-- proc_a -->
<g id="node1" class="node"><title>proc_a</title>
<ellipse fill="none" stroke="black" cx="59" cy="-298.8" rx="43.0237" ry="18"/>
<text text-anchor="middle" x="59" y="-294.6" font-family="Times,serif" font-size="14.00">Process a</text>
</g>
<!-- proc_b -->
<g id="node2" class="node"><title>proc_b</title>
<ellipse fill="none" stroke="black" cx="166" cy="-298.8" rx="43.5169" ry="18"/>
<text text-anchor="middle" x="166" y="-294.6" font-family="Times,serif" font-size="14.00">Process b</text>
</g>
<!-- proc_c -->
<g id="node3" class="node"><title>proc_c</title>
<ellipse fill="none" stroke="black" cx="271" cy="-298.8" rx="43.0237" ry="18"/>
<text text-anchor="middle" x="271" y="-294.6" font-family="Times,serif" font-size="14.00">Process c</text>
</g>
<!-- node_a_1 -->
<g id="node4" class="node"><title>node_a_1</title>
<ellipse fill="none" stroke="black" cx="59" cy="-225.8" rx="27" ry="18"/>
<text text-anchor="middle" x="59" y="-221.6" font-family="Times,serif" font-size="14.00">1</text>
</g>
<!-- node_a_2 -->
<g id="node5" class="node"><title>node_a_2</title>
<ellipse fill="#bfbfbf" stroke="#bfbfbf" cx="59" cy="-139.8" rx="1.8" ry="1.8"/>
</g>
<!-- node_a_3 -->
<g id="node6" class="node"><title>node_a_3</title>
<ellipse fill="#bfbfbf" stroke="#bfbfbf" cx="59" cy="-83" rx="1.8" ry="1.8"/>
</g>
<!-- node_a_4 -->
<g id="node7" class="node"><title>node_a_4</title>
<ellipse fill="#bfbfbf" stroke="#bfbfbf" cx="59" cy="-42.4" rx="1.8" ry="1.8"/>
</g>
<!-- node_a_5 -->
<g id="node8" class="node"><title>node_a_5</title>
<ellipse fill="#bfbfbf" stroke="#bfbfbf" cx="59" cy="-1.8" rx="1.8" ry="1.8"/>
</g>
<!-- node_b_1 -->
<g id="node9" class="node"><title>node_b_1</title>
<ellipse fill="#bfbfbf" stroke="#bfbfbf" cx="166" cy="-225.8" rx="1.8" ry="1.8"/>
</g>
<!-- node_b_2 -->
<g id="node10" class="node"><title>node_b_2</title>
<ellipse fill="none" stroke="black" cx="166" cy="-139.8" rx="27" ry="18"/>
<text text-anchor="middle" x="166" y="-135.6" font-family="Times,serif" font-size="14.00">2</text>
</g>
<!-- node_b_3 -->
<g id="node11" class="node"><title>node_b_3</title>
<ellipse fill="#bfbfbf" stroke="#bfbfbf" cx="166" cy="-83" rx="1.8" ry="1.8"/>
</g>
<!-- node_b_4 -->
<g id="node12" class="node"><title>node_b_4</title>
<ellipse fill="#bfbfbf" stroke="#bfbfbf" cx="166" cy="-42.4" rx="1.8" ry="1.8"/>
</g>
<!-- node_b_5 -->
<g id="node13" class="node"><title>node_b_5</title>
<ellipse fill="#bfbfbf" stroke="#bfbfbf" cx="166" cy="-1.8" rx="1.8" ry="1.8"/>
</g>
<!-- node_c_1 -->
<g id="node14" class="node"><title>node_c_1</title>
<ellipse fill="#bfbfbf" stroke="#bfbfbf" cx="271" cy="-225.8" rx="1.8" ry="1.8"/>
</g>
<!-- node_c_2 -->
<g id="node15" class="node"><title>node_c_2</title>
<ellipse fill="none" stroke="black" cx="271" cy="-139.8" rx="27" ry="18"/>
<text text-anchor="middle" x="271" y="-135.6" font-family="Times,serif" font-size="14.00">2</text>
</g>
<!-- node_c_3 -->
<g id="node16" class="node"><title>node_c_3</title>
<ellipse fill="#bfbfbf" stroke="#bfbfbf" cx="271" cy="-83" rx="1.8" ry="1.8"/>
</g>
<!-- node_c_4 -->
<g id="node17" class="node"><title>node_c_4</title>
<ellipse fill="#bfbfbf" stroke="#bfbfbf" cx="271" cy="-42.4" rx="1.8" ry="1.8"/>
</g>
<!-- node_c_5 -->
<g id="node18" class="node"><title>node_c_5</title>
<ellipse fill="#bfbfbf" stroke="#bfbfbf" cx="271" cy="-1.8" rx="1.8" ry="1.8"/>
</g>
<!-- proc_a&#45;&gt;node_a_1 -->
<g id="edge3" class="edge"><title>proc_a&#45;&gt;node_a_1</title>
<path fill="none" stroke="#bfbfbf" d="M59,-280.613C59,-269.45 59,-254.96 59,-243.829"/>
</g>
<!-- proc_b&#45;&gt;node_b_1 -->
<g id="edge8" class="edge"><title>proc_b&#45;&gt;node_b_1</title>
<path fill="none" stroke="#bfbfbf" d="M166,-280.613C166,-261.57 166,-232.846 166,-227.628"/>
</g>
<!-- proc_c&#45;&gt;node_c_1 -->
<g id="edge13" class="edge"><title>proc_c&#45;&gt;node_c_1</title>
<path fill="none" stroke="#bfbfbf" d="M271,-280.613C271,-261.57 271,-232.846 271,-227.628"/>
</g>
<!-- node_a_1&#45;&gt;node_a_2 -->
<g id="edge4" class="edge"><title>node_a_1&#45;&gt;node_a_2</title>
<path fill="none" stroke="#bfbfbf" d="M59,-207.395C59,-185.098 59,-148.521 59,-141.858"/>
</g>
<!-- node_a_1&#45;&gt;node_b_2 -->
<g id="edge2" class="edge"><title>node_a_1&#45;&gt;node_b_2</title>
<path fill="none" stroke="black" d="M76.1914,-211.304C93.7662,-197.507 121.239,-175.94 141.173,-160.29"/>
<polygon fill="black" stroke="black" points="143.5,-162.914 149.204,-153.986 139.177,-157.408 143.5,-162.914"/>
<text text-anchor="middle" x="103.945" y="-178.6" font-family="Times,serif" font-size="14.00">log</text>
</g>
<!-- node_a_1&#45;&gt;node_c_2 -->
<g id="edge1" class="edge"><title>node_a_1&#45;&gt;node_c_2</title>
<path fill="none" stroke="black" d="M81.6877,-215.811C119.444,-200.851 195.296,-170.796 238.649,-153.618"/>
<polygon fill="black" stroke="black" points="240.147,-156.789 248.155,-149.852 237.569,-150.282 240.147,-156.789"/>
<text text-anchor="middle" x="191.945" y="-178.6" font-family="Times,serif" font-size="14.00">log</text>
</g>
<!-- node_a_2&#45;&gt;node_a_3 -->
<g id="edge5" class="edge"><title>node_a_2&#45;&gt;node_a_3</title>
<path fill="none" stroke="#bfbfbf" d="M59,-137.849C59,-131.14 59,-91.037 59,-84.8118"/>
</g>
<!-- node_a_3&#45;&gt;node_a_4 -->
<g id="edge6" class="edge"><title>node_a_3&#45;&gt;node_a_4</title>
<path fill="none" stroke="#bfbfbf" d="M59,-81.0458C59,-75.8448 59,-50.923 59,-44.7738"/>
</g>
<!-- node_a_4&#45;&gt;node_a_5 -->
<g id="edge7" class="edge"><title>node_a_4&#45;&gt;node_a_5</title>
<path fill="none" stroke="#bfbfbf" d="M59,-40.4458C59,-35.2448 59,-10.323 59,-4.17379"/>
</g>
<!-- node_b_1&#45;&gt;node_b_2 -->
<g id="edge9" class="edge"><title>node_b_1&#45;&gt;node_b_2</title>
<path fill="none" stroke="#bfbfbf" d="M166,-223.857C166,-217.476 166,-180.214 166,-157.824"/>
</g>
<!-- node_b_2&#45;&gt;node_b_3 -->
<g id="edge10" class="edge"><title>node_b_2&#45;&gt;node_b_3</title>
<path fill="none" stroke="#bfbfbf" d="M166,-121.761C166,-107.685 166,-89.3314 166,-84.9628"/>
</g>
<!-- node_b_3&#45;&gt;node_b_4 -->
<g id="edge11" class="edge"><title>node_b_3&#45;&gt;node_b_4</title>
<path fill="none" stroke="#bfbfbf" d="M166,-81.0458C166,-75.8448 166,-50.923 166,-44.7738"/>
</g>
<!-- node_b_4&#45;&gt;node_b_5 -->
<g id="edge12" class="edge"><title>node_b_4&#45;&gt;node_b_5</title>
<path fill="none" stroke="#bfbfbf" d="M166,-40.4458C166,-35.2448 166,-10.323 166,-4.17379"/>
</g>
<!-- node_c_1&#45;&gt;node_c_2 -->
<g id="edge14" class="edge"><title>node_c_1&#45;&gt;node_c_2</title>
<path fill="none" stroke="#bfbfbf" d="M271,-223.857C271,-217.476 271,-180.214 271,-157.824"/>
</g>
<!-- node_c_2&#45;&gt;node_c_3 -->
<g id="edge15" class="edge"><title>node_c_2&#45;&gt;node_c_3</title>
<path fill="none" stroke="#bfbfbf" d="M271,-121.761C271,-107.685 271,-89.3314 271,-84.9628"/>
</g>
<!-- node_c_3&#45;&gt;node_c_4 -->
<g id="edge16" class="edge"><title>node_c_3&#45;&gt;node_c_4</title>
<path fill="none" stroke="#bfbfbf" d="M271,-81.0458C271,-75.8448 271,-50.923 271,-44.7738"/>
</g>
<!-- node_c_4&#45;&gt;node_c_5 -->
<g id="edge17" class="edge"><title>node_c_4&#45;&gt;node_c_5</title>
<path fill="none" stroke="#bfbfbf" d="M271,-40.4458C271,-35.2448 271,-10.323 271,-4.17379"/>
</g>
</g>
</svg>
