<?xml version="1.0" encoding="UTF-8" standalone="no"?>
<!DOCTYPE svg PUBLIC "-//W3C//DTD SVG 1.1//EN"
 "http://www.w3.org/Graphics/SVG/1.1/DTD/svg11.dtd">
<!-- Generated by graphviz version 2.38.0 (20140413.2041)
 -->
<!-- Title: dataflow Pages: 1 -->
<svg width="1496pt" height="908pt"
 viewBox="0.00 0.00 1495.85 908.00" xmlns="http://www.w3.org/2000/svg" xmlns:xlink="http://www.w3.org/1999/xlink">
<g id="graph0" class="graph" transform="scale(1 1) rotate(0) translate(4 904)">
<title>dataflow</title>
<polygon fill="white" stroke="none" points="-4,4 -4,-904 1491.85,-904 1491.85,4 -4,4"/>
<!-- goal12 -->
<g id="node1" class="node"><title>goal12</title>
<ellipse fill="white" stroke="black" cx="541.923" cy="-882" rx="43.5146" ry="18"/>
<text text-anchor="middle" x="541.923" y="-877.8" font-family="Times,serif" font-size="14.00">post(c, 5)</text>
</g>
<!-- rule5 -->
<g id="node8" class="node"><title>rule5</title>
<polygon fill="none" stroke="black" points="581.423,-828 502.423,-828 502.423,-792 581.423,-792 581.423,-828"/>
<text text-anchor="middle" x="541.923" y="-805.8" font-family="Times,serif" font-size="14.00">post_prov4</text>
</g>
<!-- goal12&#45;&gt;rule5 -->
<g id="edge26" class="edge"><title>goal12&#45;&gt;rule5</title>
<path fill="none" stroke="black" d="M541.923,-863.697C541.923,-855.983 541.923,-846.712 541.923,-838.112"/>
<polygon fill="black" stroke="black" points="545.423,-838.104 541.923,-828.104 538.423,-838.104 545.423,-838.104"/>
</g>
<!-- goal24 -->
<g id="node2" class="node"><title>goal24</title>
<ellipse fill="white" stroke="black" cx="982.923" cy="-882" rx="44.0078" ry="18"/>
<text text-anchor="middle" x="982.923" y="-877.8" font-family="Times,serif" font-size="14.00">post(b, 5)</text>
</g>
<!-- rule11 -->
<g id="node28" class="node"><title>rule11</title>
<polygon fill="none" stroke="black" points="1022.42,-828 943.423,-828 943.423,-792 1022.42,-792 1022.42,-828"/>
<text text-anchor="middle" x="982.923" y="-805.8" font-family="Times,serif" font-size="14.00">post_prov4</text>
</g>
<!-- goal24&#45;&gt;rule11 -->
<g id="edge29" class="edge"><title>goal24&#45;&gt;rule11</title>
<path fill="none" stroke="black" d="M982.923,-863.697C982.923,-855.983 982.923,-846.712 982.923,-838.112"/>
<polygon fill="black" stroke="black" points="986.423,-838.104 982.923,-828.104 979.423,-838.104 986.423,-838.104"/>
</g>
<!-- rule0 -->
<g id="node3" class="node"><title>rule0</title>
<polygon fill="none" stroke="black" points="362.476,-108 289.369,-108 289.369,-72 362.476,-72 362.476,-108"/>
<text text-anchor="middle" x="325.923" y="-85.8" font-family="Times,serif" font-size="14.00">log_prov2</text>
</g>
<!-- goal2 -->
<g id="node4" class="node"><title>goal2</title>
<ellipse fill="white" stroke="black" cx="251.923" cy="-18" rx="65.2131" ry="18"/>
<text text-anchor="middle" x="251.923" y="-13.8" font-family="Times,serif" font-size="14.00">clock(a, c, 1, 2)</text>
</g>
<!-- rule0&#45;&gt;goal2 -->
<g id="edge1" class="edge"><title>rule0&#45;&gt;goal2</title>
<path fill="none" stroke="black" d="M307.63,-71.6966C298.285,-62.8567 286.78,-51.9729 276.656,-42.3961"/>
<polygon fill="black" stroke="black" points="278.912,-39.7123 269.242,-35.3829 274.101,-44.7976 278.912,-39.7123"/>
</g>
<!-- goal0 -->
<g id="node31" class="node"><title>goal0</title>
<ellipse fill="white" stroke="black" cx="699.923" cy="-18" rx="96.5857" ry="18"/>
<text text-anchor="middle" x="699.923" y="-13.8" font-family="Times,serif" font-size="14.00">bcast(a, Hello world!, 1)</text>
</g>
<!-- rule0&#45;&gt;goal0 -->
<g id="edge25" class="edge"><title>rule0&#45;&gt;goal0</title>
<path fill="none" stroke="black" d="M362.807,-82.0966C423.336,-70.7676 544.939,-48.0076 624.348,-33.145"/>
<polygon fill="black" stroke="black" points="625.112,-36.5629 634.297,-31.2828 623.824,-29.6823 625.112,-36.5629"/>
</g>
<!-- goal1 -->
<g id="node33" class="node"><title>goal1</title>
<ellipse fill="white" stroke="black" cx="400.923" cy="-18" rx="66.1734" ry="18"/>
<text text-anchor="middle" x="400.923" y="-13.8" font-family="Times,serif" font-size="14.00">member(a, c, 1)</text>
</g>
<!-- rule0&#45;&gt;goal1 -->
<g id="edge27" class="edge"><title>rule0&#45;&gt;goal1</title>
<path fill="none" stroke="black" d="M344.462,-71.6966C353.933,-62.8567 365.594,-51.9729 375.855,-42.3961"/>
<polygon fill="black" stroke="black" points="378.447,-44.7648 383.369,-35.3829 373.671,-39.6474 378.447,-44.7648"/>
</g>
<!-- goal7 -->
<g id="node5" class="node"><title>goal7</title>
<ellipse fill="white" stroke="black" cx="270.923" cy="-450" rx="89.8452" ry="18"/>
<text text-anchor="middle" x="270.923" y="-445.8" font-family="Times,serif" font-size="14.00">log(c, Hello world!, 4)</text>
</g>
<!-- rule2 -->
<g id="node6" class="node"><title>rule2</title>
<polygon fill="none" stroke="black" points="307.476,-396 234.369,-396 234.369,-360 307.476,-360 307.476,-396"/>
<text text-anchor="middle" x="270.923" y="-373.8" font-family="Times,serif" font-size="14.00">log_prov1</text>
</g>
<!-- goal7&#45;&gt;rule2 -->
<g id="edge2" class="edge"><title>goal7&#45;&gt;rule2</title>
<path fill="none" stroke="black" d="M270.923,-431.697C270.923,-423.983 270.923,-414.712 270.923,-406.112"/>
<polygon fill="black" stroke="black" points="274.423,-406.104 270.923,-396.104 267.423,-406.104 274.423,-406.104"/>
</g>
<!-- goal5 -->
<g id="node26" class="node"><title>goal5</title>
<ellipse fill="white" stroke="black" cx="184.923" cy="-306" rx="89.8452" ry="18"/>
<text text-anchor="middle" x="184.923" y="-301.8" font-family="Times,serif" font-size="14.00">log(c, Hello world!, 3)</text>
</g>
<!-- rule2&#45;&gt;goal5 -->
<g id="edge24" class="edge"><title>rule2&#45;&gt;goal5</title>
<path fill="none" stroke="black" d="M249.664,-359.697C238.672,-350.749 225.106,-339.708 213.238,-330.047"/>
<polygon fill="black" stroke="black" points="215.309,-327.221 205.344,-323.622 210.89,-332.65 215.309,-327.221"/>
</g>
<!-- goal6 -->
<g id="node34" class="node"><title>goal6</title>
<ellipse fill="white" stroke="black" cx="479.923" cy="-306" rx="187.368" ry="18"/>
<text text-anchor="middle" x="479.923" y="-301.8" font-family="Times,serif" font-size="14.00">clock(c, __WILDCARD__, 3, __WILDCARD__)</text>
</g>
<!-- rule2&#45;&gt;goal6 -->
<g id="edge28" class="edge"><title>rule2&#45;&gt;goal6</title>
<path fill="none" stroke="black" d="M307.806,-364.647C339.218,-354.126 384.914,-338.821 421.328,-326.625"/>
<polygon fill="black" stroke="black" points="422.48,-329.93 430.851,-323.435 420.257,-323.293 422.48,-329.93"/>
</g>
<!-- goal11 -->
<g id="node7" class="node"><title>goal11</title>
<ellipse fill="white" stroke="black" cx="507.923" cy="-738" rx="40.1144" ry="18"/>
<text text-anchor="middle" x="507.923" y="-733.8" font-family="Times,serif" font-size="14.00">pre(c, 5)</text>
</g>
<!-- rule4 -->
<g id="node19" class="node"><title>rule4</title>
<polygon fill="none" stroke="black" points="544.462,-684 471.383,-684 471.383,-648 544.462,-648 544.462,-684"/>
<text text-anchor="middle" x="507.923" y="-661.8" font-family="Times,serif" font-size="14.00">pre_prov3</text>
</g>
<!-- goal11&#45;&gt;rule4 -->
<g id="edge8" class="edge"><title>goal11&#45;&gt;rule4</title>
<path fill="none" stroke="black" d="M507.923,-719.697C507.923,-711.983 507.923,-702.712 507.923,-694.112"/>
<polygon fill="black" stroke="black" points="511.423,-694.104 507.923,-684.104 504.423,-694.104 511.423,-694.104"/>
</g>
<!-- rule5&#45;&gt;goal11 -->
<g id="edge18" class="edge"><title>rule5&#45;&gt;goal11</title>
<path fill="none" stroke="black" d="M533.518,-791.697C529.648,-783.728 524.971,-774.1 520.679,-765.264"/>
<polygon fill="black" stroke="black" points="523.748,-763.57 516.23,-756.104 517.451,-766.629 523.748,-763.57"/>
</g>
<!-- goal10 -->
<g id="node9" class="node"><title>goal10</title>
<ellipse fill="white" stroke="black" cx="575.923" cy="-594" rx="126.044" ry="18"/>
<text text-anchor="middle" x="575.923" y="-589.8" font-family="Times,serif" font-size="14.00">clock(c, c, 5, __WILDCARD__)</text>
</g>
<!-- rule5&#45;&gt;goal10 -->
<g id="edge3" class="edge"><title>rule5&#45;&gt;goal10</title>
<path fill="none" stroke="black" d="M547.482,-791.982C550.664,-781.669 554.494,-768.192 556.923,-756 566.21,-709.377 571.513,-654.19 574.047,-622.036"/>
<polygon fill="black" stroke="black" points="577.537,-622.295 574.801,-612.06 570.557,-621.767 577.537,-622.295"/>
</g>
<!-- rule7 -->
<g id="node10" class="node"><title>rule7</title>
<polygon fill="none" stroke="black" points="918.476,-252 845.369,-252 845.369,-216 918.476,-216 918.476,-252"/>
<text text-anchor="middle" x="881.923" y="-229.8" font-family="Times,serif" font-size="14.00">log_prov1</text>
</g>
<!-- goal16 -->
<g id="node11" class="node"><title>goal16</title>
<ellipse fill="white" stroke="black" cx="777.923" cy="-162" rx="187.861" ry="18"/>
<text text-anchor="middle" x="777.923" y="-157.8" font-family="Times,serif" font-size="14.00">clock(b, __WILDCARD__, 2, __WILDCARD__)</text>
</g>
<!-- rule7&#45;&gt;goal16 -->
<g id="edge4" class="edge"><title>rule7&#45;&gt;goal16</title>
<path fill="none" stroke="black" d="M856.481,-215.876C842.909,-206.741 826.036,-195.384 811.411,-185.54"/>
<polygon fill="black" stroke="black" points="813.351,-182.627 803.101,-179.947 809.443,-188.435 813.351,-182.627"/>
</g>
<!-- goal15 -->
<g id="node37" class="node"><title>goal15</title>
<ellipse fill="white" stroke="black" cx="1073.92" cy="-162" rx="90.3383" ry="18"/>
<text text-anchor="middle" x="1073.92" y="-157.8" font-family="Times,serif" font-size="14.00">log(b, Hello world!, 2)</text>
</g>
<!-- rule7&#45;&gt;goal15 -->
<g id="edge36" class="edge"><title>rule7&#45;&gt;goal15</title>
<path fill="none" stroke="black" d="M918.488,-219.669C948.097,-208.874 990.143,-193.545 1023.04,-181.551"/>
<polygon fill="black" stroke="black" points="1024.3,-184.818 1032.49,-178.104 1021.9,-178.242 1024.3,-184.818"/>
</g>
<!-- goal13 -->
<g id="node12" class="node"><title>goal13</title>
<ellipse fill="white" stroke="black" cx="939.923" cy="-18" rx="66.6666" ry="18"/>
<text text-anchor="middle" x="939.923" y="-13.8" font-family="Times,serif" font-size="14.00">member(a, b, 1)</text>
</g>
<!-- rule8 -->
<g id="node13" class="node"><title>rule8</title>
<polygon fill="none" stroke="black" points="1040.48,-396 967.369,-396 967.369,-360 1040.48,-360 1040.48,-396"/>
<text text-anchor="middle" x="1003.92" y="-373.8" font-family="Times,serif" font-size="14.00">log_prov1</text>
</g>
<!-- goal17 -->
<g id="node14" class="node"><title>goal17</title>
<ellipse fill="white" stroke="black" cx="881.923" cy="-306" rx="90.3383" ry="18"/>
<text text-anchor="middle" x="881.923" y="-301.8" font-family="Times,serif" font-size="14.00">log(b, Hello world!, 3)</text>
</g>
<!-- rule8&#45;&gt;goal17 -->
<g id="edge5" class="edge"><title>rule8&#45;&gt;goal17</title>
<path fill="none" stroke="black" d="M974.078,-359.876C957.498,-350.363 936.721,-338.442 919.094,-328.328"/>
<polygon fill="black" stroke="black" points="920.617,-325.167 910.202,-323.226 917.133,-331.238 920.617,-325.167"/>
</g>
<!-- goal18 -->
<g id="node22" class="node"><title>goal18</title>
<ellipse fill="white" stroke="black" cx="1177.92" cy="-306" rx="187.861" ry="18"/>
<text text-anchor="middle" x="1177.92" y="-301.8" font-family="Times,serif" font-size="14.00">clock(b, __WILDCARD__, 3, __WILDCARD__)</text>
</g>
<!-- rule8&#45;&gt;goal18 -->
<g id="edge10" class="edge"><title>rule8&#45;&gt;goal18</title>
<path fill="none" stroke="black" d="M1040.82,-362.155C1065.9,-352.067 1099.4,-338.591 1127,-327.484"/>
<polygon fill="black" stroke="black" points="1128.53,-330.643 1136.5,-323.664 1125.92,-324.149 1128.53,-330.643"/>
</g>
<!-- goal17&#45;&gt;rule7 -->
<g id="edge19" class="edge"><title>goal17&#45;&gt;rule7</title>
<path fill="none" stroke="black" d="M881.923,-287.697C881.923,-279.983 881.923,-270.712 881.923,-262.112"/>
<polygon fill="black" stroke="black" points="885.423,-262.104 881.923,-252.104 878.423,-262.104 885.423,-262.104"/>
</g>
<!-- rule9 -->
<g id="node15" class="node"><title>rule9</title>
<polygon fill="none" stroke="black" points="1240.48,-540 1167.37,-540 1167.37,-504 1240.48,-504 1240.48,-540"/>
<text text-anchor="middle" x="1203.92" y="-517.8" font-family="Times,serif" font-size="14.00">log_prov1</text>
</g>
<!-- goal19 -->
<g id="node16" class="node"><title>goal19</title>
<ellipse fill="white" stroke="black" cx="1003.92" cy="-450" rx="90.3383" ry="18"/>
<text text-anchor="middle" x="1003.92" y="-445.8" font-family="Times,serif" font-size="14.00">log(b, Hello world!, 4)</text>
</g>
<!-- rule9&#45;&gt;goal19 -->
<g id="edge6" class="edge"><title>rule9&#45;&gt;goal19</title>
<path fill="none" stroke="black" d="M1167.24,-508.161C1136.11,-497.265 1091.07,-481.503 1056.17,-469.288"/>
<polygon fill="black" stroke="black" points="1057.22,-465.944 1046.62,-465.944 1054.9,-472.551 1057.22,-465.944"/>
</g>
<!-- goal20 -->
<g id="node23" class="node"><title>goal20</title>
<ellipse fill="white" stroke="black" cx="1299.92" cy="-450" rx="187.861" ry="18"/>
<text text-anchor="middle" x="1299.92" y="-445.8" font-family="Times,serif" font-size="14.00">clock(b, __WILDCARD__, 4, __WILDCARD__)</text>
</g>
<!-- rule9&#45;&gt;goal20 -->
<g id="edge11" class="edge"><title>rule9&#45;&gt;goal20</title>
<path fill="none" stroke="black" d="M1227.65,-503.697C1239.86,-494.796 1254.91,-483.823 1268.11,-474.199"/>
<polygon fill="black" stroke="black" points="1270.45,-476.824 1276.47,-468.104 1266.32,-471.168 1270.45,-476.824"/>
</g>
<!-- goal19&#45;&gt;rule8 -->
<g id="edge20" class="edge"><title>goal19&#45;&gt;rule8</title>
<path fill="none" stroke="black" d="M1003.92,-431.697C1003.92,-423.983 1003.92,-414.712 1003.92,-406.112"/>
<polygon fill="black" stroke="black" points="1007.42,-406.104 1003.92,-396.104 1000.42,-406.104 1007.42,-406.104"/>
</g>
<!-- goal9 -->
<g id="node17" class="node"><title>goal9</title>
<ellipse fill="white" stroke="black" cx="321.923" cy="-594" rx="109.65" ry="18"/>
<text text-anchor="middle" x="321.923" y="-589.8" font-family="Times,serif" font-size="14.00">log(c, __WILDCARD__, 5)</text>
</g>
<!-- rule3 -->
<g id="node18" class="node"><title>rule3</title>
<polygon fill="none" stroke="black" points="358.476,-540 285.369,-540 285.369,-504 358.476,-504 358.476,-540"/>
<text text-anchor="middle" x="321.923" y="-517.8" font-family="Times,serif" font-size="14.00">log_prov1</text>
</g>
<!-- goal9&#45;&gt;rule3 -->
<g id="edge7" class="edge"><title>goal9&#45;&gt;rule3</title>
<path fill="none" stroke="black" d="M321.923,-575.697C321.923,-567.983 321.923,-558.712 321.923,-550.112"/>
<polygon fill="black" stroke="black" points="325.423,-550.104 321.923,-540.104 318.423,-550.104 325.423,-550.104"/>
</g>
<!-- rule3&#45;&gt;goal7 -->
<g id="edge34" class="edge"><title>rule3&#45;&gt;goal7</title>
<path fill="none" stroke="black" d="M309.316,-503.697C303.325,-495.474 296.046,-485.483 289.443,-476.421"/>
<polygon fill="black" stroke="black" points="292.102,-474.126 283.384,-468.104 286.444,-478.248 292.102,-474.126"/>
</g>
<!-- goal8 -->
<g id="node35" class="node"><title>goal8</title>
<ellipse fill="white" stroke="black" cx="565.923" cy="-450" rx="187.368" ry="18"/>
<text text-anchor="middle" x="565.923" y="-445.8" font-family="Times,serif" font-size="14.00">clock(c, __WILDCARD__, 4, __WILDCARD__)</text>
</g>
<!-- rule3&#45;&gt;goal8 -->
<g id="edge31" class="edge"><title>rule3&#45;&gt;goal8</title>
<path fill="none" stroke="black" d="M358.716,-510.445C395.925,-499.77 454.256,-483.035 499.56,-470.038"/>
<polygon fill="black" stroke="black" points="500.662,-473.364 509.309,-467.242 498.732,-466.635 500.662,-473.364"/>
</g>
<!-- rule4&#45;&gt;goal10 -->
<g id="edge15" class="edge"><title>rule4&#45;&gt;goal10</title>
<path fill="none" stroke="black" d="M524.732,-647.697C533.049,-639.135 543.228,-628.656 552.312,-619.304"/>
<polygon fill="black" stroke="black" points="554.85,-621.716 559.307,-612.104 549.829,-616.838 554.85,-621.716"/>
</g>
<!-- rule4&#45;&gt;goal9 -->
<g id="edge32" class="edge"><title>rule4&#45;&gt;goal9</title>
<path fill="none" stroke="black" d="M471.175,-651.17C443.159,-640.627 404.233,-625.977 373.159,-614.282"/>
<polygon fill="black" stroke="black" points="374.38,-611.002 363.788,-610.756 371.914,-617.554 374.38,-611.002"/>
</g>
<!-- rule10 -->
<g id="node20" class="node"><title>rule10</title>
<polygon fill="none" stroke="black" points="1054.46,-684 981.383,-684 981.383,-648 1054.46,-648 1054.46,-684"/>
<text text-anchor="middle" x="1017.92" y="-661.8" font-family="Times,serif" font-size="14.00">pre_prov3</text>
</g>
<!-- goal21 -->
<g id="node21" class="node"><title>goal21</title>
<ellipse fill="white" stroke="black" cx="1203.92" cy="-594" rx="110.143" ry="18"/>
<text text-anchor="middle" x="1203.92" y="-589.8" font-family="Times,serif" font-size="14.00">log(b, __WILDCARD__, 5)</text>
</g>
<!-- rule10&#45;&gt;goal21 -->
<g id="edge9" class="edge"><title>rule10&#45;&gt;goal21</title>
<path fill="none" stroke="black" d="M1054.67,-651.17C1082.69,-640.627 1121.61,-625.977 1152.69,-614.282"/>
<polygon fill="black" stroke="black" points="1153.93,-617.554 1162.06,-610.756 1151.47,-611.002 1153.93,-617.554"/>
</g>
<!-- goal22 -->
<g id="node29" class="node"><title>goal22</title>
<ellipse fill="white" stroke="black" cx="948.923" cy="-594" rx="127.03" ry="18"/>
<text text-anchor="middle" x="948.923" y="-589.8" font-family="Times,serif" font-size="14.00">clock(b, b, 5, __WILDCARD__)</text>
</g>
<!-- rule10&#45;&gt;goal22 -->
<g id="edge37" class="edge"><title>rule10&#45;&gt;goal22</title>
<path fill="none" stroke="black" d="M1000.87,-647.697C992.427,-639.135 982.098,-628.656 972.88,-619.304"/>
<polygon fill="black" stroke="black" points="975.295,-616.769 965.783,-612.104 970.31,-621.683 975.295,-616.769"/>
</g>
<!-- goal21&#45;&gt;rule9 -->
<g id="edge12" class="edge"><title>goal21&#45;&gt;rule9</title>
<path fill="none" stroke="black" d="M1203.92,-575.697C1203.92,-567.983 1203.92,-558.712 1203.92,-550.112"/>
<polygon fill="black" stroke="black" points="1207.42,-550.104 1203.92,-540.104 1200.42,-550.104 1207.42,-550.104"/>
</g>
<!-- goal14 -->
<g id="node24" class="node"><title>goal14</title>
<ellipse fill="white" stroke="black" cx="1089.92" cy="-18" rx="65.7062" ry="18"/>
<text text-anchor="middle" x="1089.92" y="-13.8" font-family="Times,serif" font-size="14.00">clock(a, b, 1, 2)</text>
</g>
<!-- rule6 -->
<g id="node25" class="node"><title>rule6</title>
<polygon fill="none" stroke="black" points="1051.48,-108 978.369,-108 978.369,-72 1051.48,-72 1051.48,-108"/>
<text text-anchor="middle" x="1014.92" y="-85.8" font-family="Times,serif" font-size="14.00">log_prov2</text>
</g>
<!-- rule6&#45;&gt;goal13 -->
<g id="edge16" class="edge"><title>rule6&#45;&gt;goal13</title>
<path fill="none" stroke="black" d="M996.383,-71.6966C986.912,-62.8567 975.251,-51.9729 964.99,-42.3961"/>
<polygon fill="black" stroke="black" points="967.174,-39.6474 957.476,-35.3829 962.398,-44.7648 967.174,-39.6474"/>
</g>
<!-- rule6&#45;&gt;goal14 -->
<g id="edge13" class="edge"><title>rule6&#45;&gt;goal14</title>
<path fill="none" stroke="black" d="M1033.46,-71.6966C1042.93,-62.8567 1054.59,-51.9729 1064.86,-42.3961"/>
<polygon fill="black" stroke="black" points="1067.45,-44.7648 1072.37,-35.3829 1062.67,-39.6474 1067.45,-44.7648"/>
</g>
<!-- rule6&#45;&gt;goal0 -->
<g id="edge22" class="edge"><title>rule6&#45;&gt;goal0</title>
<path fill="none" stroke="black" d="M978.172,-80.8331C927.181,-69.5018 833.991,-48.7929 769.594,-34.4826"/>
<polygon fill="black" stroke="black" points="770.039,-30.996 759.517,-32.2433 768.52,-37.8293 770.039,-30.996"/>
</g>
<!-- rule1 -->
<g id="node27" class="node"><title>rule1</title>
<polygon fill="none" stroke="black" points="221.476,-252 148.369,-252 148.369,-216 221.476,-216 221.476,-252"/>
<text text-anchor="middle" x="184.923" y="-229.8" font-family="Times,serif" font-size="14.00">log_prov1</text>
</g>
<!-- goal5&#45;&gt;rule1 -->
<g id="edge14" class="edge"><title>goal5&#45;&gt;rule1</title>
<path fill="none" stroke="black" d="M184.923,-287.697C184.923,-279.983 184.923,-270.712 184.923,-262.112"/>
<polygon fill="black" stroke="black" points="188.423,-262.104 184.923,-252.104 181.423,-262.104 188.423,-262.104"/>
</g>
<!-- goal3 -->
<g id="node30" class="node"><title>goal3</title>
<ellipse fill="white" stroke="black" cx="89.9226" cy="-162" rx="89.8452" ry="18"/>
<text text-anchor="middle" x="89.9226" y="-157.8" font-family="Times,serif" font-size="14.00">log(c, Hello world!, 2)</text>
</g>
<!-- rule1&#45;&gt;goal3 -->
<g id="edge21" class="edge"><title>rule1&#45;&gt;goal3</title>
<path fill="none" stroke="black" d="M161.439,-215.697C149.18,-206.663 134.023,-195.495 120.823,-185.769"/>
<polygon fill="black" stroke="black" points="122.608,-182.737 112.481,-179.622 118.456,-188.372 122.608,-182.737"/>
</g>
<!-- goal4 -->
<g id="node32" class="node"><title>goal4</title>
<ellipse fill="white" stroke="black" cx="384.923" cy="-162" rx="187.368" ry="18"/>
<text text-anchor="middle" x="384.923" y="-157.8" font-family="Times,serif" font-size="14.00">clock(c, __WILDCARD__, 2, __WILDCARD__)</text>
</g>
<!-- rule1&#45;&gt;goal4 -->
<g id="edge23" class="edge"><title>rule1&#45;&gt;goal4</title>
<path fill="none" stroke="black" d="M221.606,-220.161C251.371,-209.743 293.85,-194.875 328.024,-182.914"/>
<polygon fill="black" stroke="black" points="329.599,-186.071 337.881,-179.464 327.287,-179.464 329.599,-186.071"/>
</g>
<!-- rule11&#45;&gt;goal22 -->
<g id="edge17" class="edge"><title>rule11&#45;&gt;goal22</title>
<path fill="none" stroke="black" d="M977.363,-791.982C974.182,-781.669 970.351,-768.192 967.923,-756 958.635,-709.377 953.332,-654.19 950.799,-622.036"/>
<polygon fill="black" stroke="black" points="954.288,-621.767 950.044,-612.06 947.308,-622.295 954.288,-621.767"/>
</g>
<!-- goal23 -->
<g id="node36" class="node"><title>goal23</title>
<ellipse fill="white" stroke="black" cx="1017.92" cy="-738" rx="40.6075" ry="18"/>
<text text-anchor="middle" x="1017.92" y="-733.8" font-family="Times,serif" font-size="14.00">pre(b, 5)</text>
</g>
<!-- rule11&#45;&gt;goal23 -->
<g id="edge35" class="edge"><title>rule11&#45;&gt;goal23</title>
<path fill="none" stroke="black" d="M991.574,-791.697C995.661,-783.523 1000.62,-773.603 1005.13,-764.584"/>
<polygon fill="black" stroke="black" points="1008.27,-766.132 1009.61,-755.622 1002.01,-763.001 1008.27,-766.132"/>
</g>
<!-- goal3&#45;&gt;rule0 -->
<g id="edge30" class="edge"><title>goal3&#45;&gt;rule0</title>
<path fill="none" stroke="black" d="M137.965,-146.75C179.301,-134.489 238.562,-116.912 279.439,-104.788"/>
<polygon fill="black" stroke="black" points="280.563,-108.105 289.155,-101.906 278.572,-101.394 280.563,-108.105"/>
</g>
<!-- goal23&#45;&gt;rule10 -->
<g id="edge38" class="edge"><title>goal23&#45;&gt;rule10</title>
<path fill="none" stroke="black" d="M1017.92,-719.697C1017.92,-711.983 1017.92,-702.712 1017.92,-694.112"/>
<polygon fill="black" stroke="black" points="1021.42,-694.104 1017.92,-684.104 1014.42,-694.104 1021.42,-694.104"/>
</g>
<!-- goal15&#45;&gt;rule6 -->
<g id="edge33" class="edge"><title>goal15&#45;&gt;rule6</title>
<path fill="none" stroke="black" d="M1059.64,-144.055C1052.57,-135.668 1043.9,-125.376 1036.08,-116.096"/>
<polygon fill="black" stroke="black" points="1038.6,-113.666 1029.48,-108.275 1033.25,-118.177 1038.6,-113.666"/>
</g>
</g>
</svg>
